<?xml version="1.0" standalone="no"?>
<!DOCTYPE svg PUBLIC "-//W3C//DTD SVG 20010904//EN"
 "http://www.w3.org/TR/2001/REC-SVG-20010904/DTD/svg10.dtd">
<svg version="1.0" xmlns="http://www.w3.org/2000/svg"
 width="666.000000pt" height="375.000000pt" viewBox="0 0 666.000000 375.000000"
 preserveAspectRatio="xMidYMid meet">

<g transform="translate(0.000000,375.000000) scale(0.100000,-0.100000)"
fill="#000000" stroke="none">
<path d="M1600 3434 c-124 -23 -239 -51 -328 -80 -88 -29 -124 -35 -202 -37
-84 -2 -103 -6 -160 -33 -36 -18 -83 -35 -105 -38 -22 -4 -60 -13 -85 -21 -25
-7 -72 -16 -105 -20 -131 -15 -225 -88 -263 -205 -40 -126 -66 -317 -84 -632
-26 -451 37 -1302 126 -1688 53 -230 97 -292 232 -328 130 -35 231 -42 596
-42 276 0 381 4 515 19 92 11 202 22 243 26 41 3 116 15 165 25 55 11 96 14
106 9 70 -36 519 186 519 257 0 17 -17 34 -34 34 -2 0 -23 -16 -47 -34 -24
-19 -45 -34 -46 -32 -2 2 47 54 109 117 129 130 167 191 198 320 27 111 37
278 20 361 -26 137 -101 267 -222 388 -73 73 -228 194 -286 224 -38 19 -36 25
28 102 52 62 115 189 136 274 20 80 14 257 -11 340 -26 85 -84 194 -138 261
-102 125 -303 256 -482 312 -78 24 -214 46 -305 48 l-45 1 45 10 c61 12 237 1
338 -23 46 -10 116 -33 157 -50 85 -35 110 -35 110 1 0 21 -11 28 -82 57 -152
62 -220 75 -413 78 -96 2 -186 1 -200 -1z m38 -659 c98 -45 126 -85 125 -181
-1 -93 -46 -167 -147 -238 -66 -47 -102 -61 -183 -71 l-53 -7 -1 89 c-1 48 -2
162 -3 252 l-1 164 35 13 c53 20 159 10 228 -21z m-327 -270 l2 -280 -39 -6
c-21 -4 -41 -5 -44 -2 -3 3 -5 129 -5 280 l0 276 35 12 c19 7 38 10 42 6 4 -3
8 -132 9 -286z m23 -1024 c3 -5 1 -134 -4 -286 -8 -208 -8 -281 1 -291 7 -9
31 -14 62 -14 38 0 48 -3 40 -11 -11 -11 -186 -9 -197 2 -10 10 17 594 28 601
15 11 64 10 70 -1z m458 -23 c98 -46 208 -166 208 -227 0 -33 -31 -101 -66
-147 -46 -59 -177 -144 -209 -135 -5 1 -76 2 -156 1 -80 0 -153 2 -163 6 -15
6 -16 26 -11 258 4 138 9 257 11 265 3 10 36 12 167 9 150 -3 166 -5 219 -30z
m-199 -1135 c-7 -2 -19 -2 -25 0 -7 3 -2 5 12 5 14 0 19 -2 13 -5z"/>
<path d="M2460 3175 c-10 -12 -9 -20 4 -40 9 -14 21 -25 26 -25 19 0 130 -145
164 -214 20 -40 44 -106 55 -146 20 -82 40 -105 67 -78 15 14 14 22 -4 96 -35
136 -119 280 -220 375 -54 50 -72 56 -92 32z"/>
<path d="M2716 2424 c-9 -8 -16 -21 -16 -27 0 -27 -70 -155 -112 -207 -47 -57
-68 -91 -68 -109 0 -5 33 -31 73 -57 138 -90 315 -251 363 -333 20 -34 58 -42
68 -14 9 23 -47 104 -131 189 -65 65 -254 216 -283 226 -8 2 7 30 40 73 81
107 134 231 110 260 -16 19 -25 19 -44 -1z"/>
<path d="M5668 1606 c-23 -11 -23 -14 -25 -186 -1 -96 -7 -296 -13 -443 -7
-186 -7 -274 0 -288 16 -30 78 -27 90 5 13 35 32 873 20 895 -13 24 -43 31
-72 17z"/>
<path d="M5326 1593 c-3 -10 -10 -215 -16 -456 -9 -338 -9 -442 1 -453 15 -19
63 -18 79 1 16 19 32 445 28 731 l-3 189 -42 3 c-33 2 -42 -1 -47 -15z"/>
<path d="M3966 1576 c-21 -20 -23 -35 -29 -161 -4 -77 -4 -270 0 -428 6 -275
7 -289 27 -302 17 -13 23 -13 44 1 21 14 28 14 69 0 59 -20 156 -20 215 0 61
20 117 70 153 135 24 45 30 69 33 140 7 139 -39 240 -136 297 -40 23 -58 27
-122 27 -62 0 -84 -5 -127 -28 -29 -15 -55 -27 -59 -27 -3 0 -5 75 -4 168 1
92 2 172 1 178 -2 23 -43 23 -65 0z m342 -414 c59 -42 95 -158 73 -238 -35
-132 -156 -186 -296 -133 l-55 20 0 149 0 148 48 30 c26 17 58 36 72 41 40 17
123 8 158 -17z"/>
<path d="M3054 1540 c-8 -8 -7 -27 2 -68 25 -106 11 -304 -32 -434 -16 -49
-71 -137 -124 -199 -34 -40 -32 -69 5 -69 29 0 125 117 161 195 76 167 89 572
18 583 -10 1 -24 -2 -30 -8z"/>
<path d="M3510 1277 c-91 -25 -172 -97 -214 -186 -17 -37 -21 -65 -21 -146 0
-116 13 -162 62 -216 67 -74 180 -87 298 -34 50 22 60 23 67 11 5 -8 22 -24
38 -36 23 -16 34 -19 49 -11 31 17 31 36 -2 118 -31 76 -32 82 -31 221 1 95 6
152 14 167 39 73 -135 147 -260 112z m128 -93 c22 -6 23 -9 17 -83 -4 -42 -2
-121 4 -175 13 -110 9 -121 -53 -153 -38 -20 -125 -22 -158 -4 -44 23 -70 83
-71 164 -1 86 18 135 71 191 57 59 119 79 190 60z"/>
<path d="M4812 1281 c-79 -20 -149 -93 -188 -196 -29 -75 -27 -225 3 -282 52
-96 143 -138 287 -131 106 6 185 35 229 87 32 39 34 54 7 81 -27 27 -34 26
-74 -14 -52 -53 -159 -77 -245 -56 -47 11 -144 80 -131 93 3 2 84 43 181 90
197 95 225 119 223 192 -1 53 -26 89 -77 114 -47 23 -164 35 -215 22z m162
-105 c44 -18 52 -34 30 -52 -33 -26 -303 -158 -310 -152 -9 10 24 101 49 140
50 73 146 100 231 64z"/>
<path d="M6065 1256 c-57 -26 -94 -65 -132 -140 -35 -67 -44 -208 -19 -284 35
-103 125 -172 227 -172 121 1 209 80 245 221 41 160 -21 348 -129 388 -49 19
-137 13 -192 -13z m185 -114 c35 -35 50 -87 50 -172 0 -121 -64 -200 -161
-200 -36 0 -55 6 -78 25 -68 58 -79 186 -24 288 35 63 73 87 136 87 40 0 54
-5 77 -28z"/>
</g>
</svg>
